<svg xmlns="http://www.w3.org/2000/svg" xmlns:xlink="http://www.w3.org/1999/xlink" fill="none" version="1.1" width="24" height="24" viewBox="0 0 24 24"><defs><clipPath id="master_svg0_0_975"><rect x="0" y="0" width="24" height="24" rx="0"/></clipPath></defs><g clip-path="url(#master_svg0_0_975)"><g><g><rect x="3.0000000596046448" y="4.5" width="6" height="6" rx="0" fill-opacity="0" stroke-opacity="1" stroke="#FFFFFF" fill="none" stroke-width="2"/></g><g><path d="M3.8087400478363036,16.911510625C3.8087400478363036,16.911510625,3.2205600478363037,16.102770624999998,3.2205600478363037,16.102770624999998C3.2205600478363037,16.102770624999998,1.6030900478363037,17.279120625,1.6030900478363037,17.279120625C1.6030900478363037,17.279120625,2.1912640478363037,18.087850625,2.1912640478363037,18.087850625C2.1912640478363037,18.087850625,3.8087400478363036,16.911510625,3.8087400478363036,16.911510625C3.8087400478363036,16.911510625,3.8087400478363036,16.911510625,3.8087400478363036,16.911510625ZM5.181820047836304,20.499680625C5.181820047836304,20.499680625,4.373080047836304,21.087850625,4.373080047836304,21.087850625C4.567710047836304,21.355460625,4.882110047836304,21.509470625,5.212850047836303,21.499200625C5.543580047836304,21.488930625000002,5.847830047836304,21.315720625,6.025480047836304,21.036560625C6.025480047836304,21.036560625,5.181820047836304,20.499680625,5.181820047836304,20.499680625C5.181820047836304,20.499680625,5.181820047836304,20.499680625,5.181820047836304,20.499680625ZM9.843660047836304,15.036560625C9.843660047836304,15.036560625,10.380540047836304,14.192890625,10.380540047836304,14.192890625C10.380540047836304,14.192890625,8.693210047836303,13.119140625,8.693210047836303,13.119140625C8.693210047836303,13.119140625,8.156340047836304,13.962805625,8.156340047836304,13.962805625C8.156340047836304,13.962805625,9.843660047836304,15.036560625,9.843660047836304,15.036560625C9.843660047836304,15.036560625,9.843660047836304,15.036560625,9.843660047836304,15.036560625ZM2.1912640478363037,18.087850625C2.1912640478363037,18.087850625,4.373080047836304,21.087850625,4.373080047836304,21.087850625C4.373080047836304,21.087850625,5.990550047836304,19.911510625,5.990550047836304,19.911510625C5.990550047836304,19.911510625,3.8087400478363036,16.911510625,3.8087400478363036,16.911510625C3.8087400478363036,16.911510625,2.1912640478363037,18.087850625,2.1912640478363037,18.087850625C2.1912640478363037,18.087850625,2.1912640478363037,18.087850625,2.1912640478363037,18.087850625ZM6.025480047836304,21.036560625C6.025480047836304,21.036560625,9.843660047836304,15.036560625,9.843660047836304,15.036560625C9.843660047836304,15.036560625,8.156340047836304,13.962805625,8.156340047836304,13.962805625C8.156340047836304,13.962805625,4.338160047836304,19.962800625,4.338160047836304,19.962800625C4.338160047836304,19.962800625,6.025480047836304,21.036560625,6.025480047836304,21.036560625C6.025480047836304,21.036560625,6.025480047836304,21.036560625,6.025480047836304,21.036560625Z" fill="#FFFFFF" fill-opacity="1"/></g><g><rect x="11.999999761581421" y="6.5" width="10" height="2" rx="0" fill="#FFFFFF" fill-opacity="1"/></g><g><rect x="11.999999761581421" y="16.5" width="10" height="2" rx="0" fill="#FFFFFF" fill-opacity="1"/></g></g></g></svg>